# https://github.com/mikedh/trimesh
v 22.66850090 14.48999977 97.08499908
v 64.21200562 14.48999977 97.08499908
v 64.21200562 15.47999954 97.08499908
v 22.66850090 15.47999954 97.08499908
v 83.84987640 14.48999977 96.59498596
v 83.78799438 14.48999977 97.08499908
v 83.78799438 15.47999954 97.08499908
v 83.88723755 14.48999977 96.10249329
v 83.84987640 15.47999954 96.59498596
v 83.89999390 14.48999977 95.60875702
v 83.88723755 15.47999954 96.10249329
v 83.88811493 14.48999977 95.11499023
v 83.89999390 15.47999954 95.60875702
v 83.85161591 14.48999977 94.62243652
v 83.88811493 15.47999954 95.11499023
v 83.79060364 14.48999977 94.13231659
v 83.85161591 15.47999954 94.62243652
v 83.70522308 14.48999977 93.64584351
v 83.79060364 15.47999954 94.13231659
v 83.59568024 14.48999977 93.16423798
v 83.70522308 15.47999954 93.64584351
v 83.46225739 14.48999977 92.68869781
v 83.59568024 15.47999954 93.16423798
v 83.30528259 14.48999977 92.22039795
v 83.46225739 15.47999954 92.68869781
v 83.12515259 14.48999977 91.76051331
v 83.30528259 15.47999954 92.22039795
v 82.92230225 14.48999977 91.31018829
v 83.12515259 15.47999954 91.76051331
v 82.69725037 14.48999977 90.87053680
v 82.92230225 15.47999954 91.31018829
v 82.45054626 14.48999977 90.44265747
v 82.69725037 15.47999954 90.87053680
v 82.18281555 14.48999977 90.02761078
v 82.45054626 15.47999954 90.44265747
v 81.89471436 14.48999977 89.62643433
v 82.18281555 15.47999954 90.02761078
v 81.58696747 14.48999977 89.24012756
v 81.89471436 15.47999954 89.62643433
v 81.26033020 14.48999977 88.86965179
v 81.58696747 15.47999954 89.24012756
v 80.91562653 14.48999977 88.51593018
v 81.26033020 15.47999954 88.86965179
v 80.55371094 14.48999977 88.17983246
v 80.91562653 15.47999954 88.51593018
v 80.17548370 14.48999977 87.86220551
v 80.55371094 15.47999954 88.17983246
v 79.78188324 14.48999977 87.56384277
v 80.17548370 15.47999954 87.86220551
v 79.37389374 14.48999977 87.28547668
v 79.78188324 15.47999954 87.56384277
v 78.95252991 14.48999977 87.02780914
v 79.37389374 15.47999954 87.28547668
v 78.51883698 14.48999977 86.79147339
v 78.95252991 15.47999954 87.02780914
v 78.07389832 14.48999977 86.57706451
v 78.51883698 15.47999954 86.79147339
v 77.61882019 14.48999977 86.38510895
v 78.07389832 15.47999954 86.57706451
v 77.15473175 14.48999977 86.21609497
v 77.61882019 15.47999954 86.38510895
v 76.68279266 14.48999977 86.07043457
v 77.15473175 15.47999954 86.21609497
v 76.20417786 14.48999977 85.94849396
v 76.68279266 15.47999954 86.07043457
v 75.72007751 14.48999977 85.85057068
v 76.20417786 15.47999954 85.94849396
v 75.23168945 14.48999977 85.77691650
v 75.72007751 15.47999954 85.85057068
v 74.74024200 14.48999977 85.72771454
v 75.23168945 15.47999954 85.77691650
v 74.24695587 14.48999977 85.70307922
v 74.74024200 15.47999954 85.72771454
v 73.75304413 14.48999977 85.70307922
v 74.24695587 15.47999954 85.70307922
v 73.25975800 14.48999977 85.72771454
v 73.75304413 15.47999954 85.70307922
v 72.76831055 14.48999977 85.77691650
v 73.25975800 15.47999954 85.72771454
v 72.27992249 14.48999977 85.85057068
v 72.76831055 15.47999954 85.77691650
v 71.79582214 14.48999977 85.94849396
v 72.27992249 15.47999954 85.85057068
v 71.31720734 14.48999977 86.07043457
v 71.79582214 15.47999954 85.94849396
v 70.84526825 14.48999977 86.21609497
v 71.31720734 15.47999954 86.07043457
v 70.38117981 14.48999977 86.38510895
v 70.84526825 15.47999954 86.21609497
v 69.92610168 14.48999977 86.57706451
v 70.38117981 15.47999954 86.38510895
v 69.48116302 14.48999977 86.79147339
v 69.92610168 15.47999954 86.57706451
v 69.04747009 14.48999977 87.02780914
v 69.48116302 15.47999954 86.79147339
v 68.62610626 14.48999977 87.28547668
v 69.04747009 15.47999954 87.02780914
v 68.21811676 14.48999977 87.56384277
v 68.62610626 15.47999954 87.28547668
v 67.82451630 14.48999977 87.86220551
v 68.21811676 15.47999954 87.56384277
v 67.44628906 14.48999977 88.17983246
v 67.82451630 15.47999954 87.86220551
v 67.08437347 14.48999977 88.51593018
v 67.44628906 15.47999954 88.17983246
v 66.73966980 14.48999977 88.86965179
v 67.08437347 15.47999954 88.51593018
v 66.41303253 14.48999977 89.24012756
v 66.73966980 15.47999954 88.86965179
v 66.10528564 14.48999977 89.62643433
v 66.41303253 15.47999954 89.24012756
v 65.81718445 14.48999977 90.02761078
v 66.10528564 15.47999954 89.62643433
v 65.54945374 14.48999977 90.44265747
v 65.81718445 15.47999954 90.02761078
v 65.30274963 14.48999977 90.87053680
v 65.54945374 15.47999954 90.44265747
v 65.07769775 14.48999977 91.31018829
v 65.30274963 15.47999954 90.87053680
v 64.87484741 14.48999977 91.76051331
v 65.07769775 15.47999954 91.31018829
v 64.69471741 14.48999977 92.22039795
v 64.87484741 15.47999954 91.76051331
v 64.53774261 14.48999977 92.68869781
v 64.69471741 15.47999954 92.22039795
v 64.40431976 14.48999977 93.16423798
v 64.53774261 15.47999954 92.68869781
v 64.29477692 14.48999977 93.64584351
v 64.40431976 15.47999954 93.16423798
v 64.20939636 14.48999977 94.13231659
v 64.29477692 15.47999954 93.64584351
v 64.14838409 14.48999977 94.62243652
v 64.20939636 15.47999954 94.13231659
v 64.11188507 14.48999977 95.11499023
v 64.14838409 15.47999954 94.62243652
v 64.10000610 14.48999977 95.60875702
v 64.11188507 15.47999954 95.11499023
v 64.11276245 14.48999977 96.10249329
v 64.10000610 15.47999954 95.60875702
v 64.15012360 14.48999977 96.59498596
v 64.11276245 15.47999954 96.10249329
v 64.15012360 15.47999954 96.59498596
v 124.48999786 15.47999954 97.08499908
v 124.48999786 14.48999977 97.08499908
v 22.46690559 14.48999977 97.08004761
v 22.66850090 110.51999664 97.08499908
v 22.46690559 111.51000214 97.08004761
v 22.26579666 111.51000214 97.06521606
v 22.26579666 14.48999977 97.06521606
v 22.06565857 111.51000214 97.04053497
v 22.06565857 14.48999977 97.04053497
v 21.86697197 111.51000214 97.00605774
v 21.86697197 14.48999977 97.00605774
v 21.67021561 111.51000214 96.96187592
v 21.67021561 14.48999977 96.96187592
v 21.47586632 111.51000214 96.90808868
v 21.47586632 14.48999977 96.90808868
v 21.28438759 111.51000214 96.84483337
v 21.28438759 14.48999977 96.84483337
v 21.09624481 111.51000214 96.77226257
v 21.09624481 14.48999977 96.77226257
v 20.91189003 111.51000214 96.69053650
v 20.91189003 14.48999977 96.69053650
v 20.73176575 111.51000214 96.59987640
v 20.73176575 14.48999977 96.59987640
v 20.55630875 111.51000214 96.50048065
v 20.55630875 14.48999977 96.50048065
v 20.38594055 111.51000214 96.39259338
v 20.38594055 14.48999977 96.39259338
v 20.22106934 111.51000214 96.27648163
v 20.22106934 14.48999977 96.27648163
v 20.06209564 111.51000214 96.15241241
v 20.06209564 14.48999977 96.15241241
v 19.90940094 111.51000214 96.02069855
v 19.90940094 14.48999977 96.02069855
v 19.76335144 111.51000214 95.88164520
v 19.76335144 14.48999977 95.88164520
v 19.62430191 111.51000214 95.73560333
v 19.62430191 14.48999977 95.73560333
v 19.49258614 111.51000214 95.58290100
v 19.49258614 14.48999977 95.58290100
v 19.36852264 111.51000214 95.42392731
v 19.36852264 14.48999977 95.42392731
v 19.25240707 111.51000214 95.25906372
v 19.25240707 14.48999977 95.25906372
v 19.14452171 111.51000214 95.08869171
v 19.14452171 14.48999977 95.08869171
v 19.04512596 111.51000214 94.91323090
v 19.04512596 14.48999977 94.91323090
v 18.95446014 111.51000214 94.73310852
v 18.95446014 14.48999977 94.73310852
v 18.87274170 111.51000214 94.54875183
v 18.87274170 14.48999977 94.54875183
v 18.80016708 111.51000214 94.36061096
v 18.80016708 14.48999977 94.36061096
v 18.73690987 111.51000214 94.16913605
v 18.73690987 14.48999977 94.16913605
v 18.68312645 111.51000214 93.97478485
v 18.68312645 14.48999977 93.97478485
v 18.63894463 111.51000214 93.77803040
v 18.63894463 14.48999977 93.77803040
v 18.60446739 111.51000214 93.57934570
v 18.60446739 14.48999977 93.57934570
v 18.57978439 111.51000214 93.37920380
v 18.57978439 14.48999977 93.37920380
v 18.56494904 111.51000214 93.17809296
v 18.56494904 14.48999977 93.17809296
v 18.55999947 111.51000214 92.97650146
v 18.55999947 14.48999977 92.97650146
v 22.66850090 111.51000214 97.08499908
v 124.48999786 110.51999664 97.08499908
v 124.48999786 111.51000214 97.08499908
v 18.55999947 111.51000214 19.02350044
v 18.55999947 14.48999977 19.02350044
v 18.56494904 111.51000214 18.82190514
v 18.56494904 14.48999977 18.82190514
v 18.57978439 111.51000214 18.62079620
v 18.57978439 14.48999977 18.62079620
v 18.60446739 111.51000214 18.42065811
v 18.60446739 14.48999977 18.42065811
v 18.63894463 111.51000214 18.22197151
v 18.63894463 14.48999977 18.22197151
v 18.68312645 111.51000214 18.02521515
v 18.68312645 14.48999977 18.02521515
v 18.73690987 111.51000214 17.83086586
v 18.73690987 14.48999977 17.83086586
v 18.80016708 111.51000214 17.63938713
v 18.80016708 14.48999977 17.63938713
v 18.87274170 111.51000214 17.45124435
v 18.87274170 14.48999977 17.45124435
v 18.95446014 111.51000214 17.26688957
v 18.95446014 14.48999977 17.26688957
v 19.04512596 111.51000214 17.08676720
v 19.04512596 14.48999977 17.08676720
v 19.14452171 111.51000214 16.91130829
v 19.14452171 14.48999977 16.91130829
v 19.25240707 111.51000214 16.74094009
v 19.25240707 14.48999977 16.74094009
v 19.36852264 111.51000214 16.57606888
v 19.36852264 14.48999977 16.57606888
v 19.49258614 111.51000214 16.41709518
v 19.49258614 14.48999977 16.41709518
v 19.62430191 111.51000214 16.26440048
v 19.62430191 14.48999977 16.26440048
v 19.76335144 111.51000214 16.11835098
v 19.76335144 14.48999977 16.11835098
v 19.90940094 111.51000214 15.97930241
v 19.90940094 14.48999977 15.97930241
v 20.06209564 111.51000214 15.84758663
v 20.06209564 14.48999977 15.84758663
v 20.22106934 111.51000214 15.72352219
v 20.22106934 14.48999977 15.72352219
v 20.38594055 111.51000214 15.60740757
v 20.38594055 14.48999977 15.60740757
v 20.55630875 111.51000214 15.49952221
v 20.55630875 14.48999977 15.49952221
v 20.73176575 111.51000214 15.40012646
v 20.73176575 14.48999977 15.40012646
v 20.91189003 111.51000214 15.30945969
v 20.91189003 14.48999977 15.30945969
v 21.09624481 111.51000214 15.22774124
v 21.09624481 14.48999977 15.22774124
v 21.28438759 111.51000214 15.15516663
v 21.28438759 14.48999977 15.15516663
v 21.47586632 111.51000214 15.09191036
v 21.47586632 14.48999977 15.09191036
v 21.67021561 111.51000214 15.03812695
v 21.67021561 14.48999977 15.03812695
v 21.86697197 111.51000214 14.99394321
v 21.86697197 14.48999977 14.99394321
v 22.06565857 111.51000214 14.95946789
v 22.06565857 14.48999977 14.95946789
v 22.26579666 111.51000214 14.93478394
v 22.26579666 14.48999977 14.93478394
v 22.46690559 111.51000214 14.91994858
v 22.46690559 14.48999977 14.91994858
v 22.66850090 111.51000214 14.91499996
v 22.66850090 14.48999977 14.91499996
v 124.48999786 111.51000214 14.91499996
v 124.48999786 14.48999977 14.91499996
v 126.60639954 14.48999977 15.39025307
v 126.82341003 14.48999977 15.49948978
v 128.60577393 14.48999977 17.11492729
v 128.73576355 14.48999977 17.32019234
v 127.03480530 14.48999977 15.61924362
v 127.24007416 14.48999977 15.74922562
v 126.38428497 14.48999977 15.29179668
v 125.92691040 14.48999977 15.12814522
v 126.15760803 14.48999977 15.20435715
v 128.85551453 14.48999977 17.53158569
v 127.63024902 14.48999977 16.03859901
v 127.81421661 14.48999977 16.19729233
v 127.43871307 14.48999977 15.88912296
v 128.46588135 14.48999977 16.91628838
v 127.99018097 14.48999977 16.36482048
v 124.73288727 14.48999977 14.92096233
v 124.97518158 14.48999977 14.93883514
v 129.06320190 14.48999977 17.97071648
v 129.15065002 14.48999977 18.19739532
v 128.96475220 14.48999977 17.74860191
v 128.15771484 14.48999977 16.54078293
v 128.31640625 14.48999977 16.72475243
v 128.85551453 14.48999977 94.46841431
v 128.73576355 14.48999977 94.67980957
v 125.21631622 14.48999977 14.96857643
v 129.34489441 14.48999977 18.89930344
v 129.38642883 14.48999977 19.13868332
v 128.60577393 14.48999977 94.88507080
v 125.45569611 14.48999977 15.01011276
v 125.69274902 14.48999977 15.06334496
v 129.22685242 14.48999977 18.42809105
v 129.29165649 14.48999977 18.66224861
v 129.43403625 14.48999977 19.62211418
v 129.44000244 14.48999977 19.86499977
v 129.41616821 14.48999977 19.37981606
v 128.96475220 14.48999977 94.25139618
v 125.92691040 14.48999977 96.87185669
v 125.21631622 14.48999977 97.03142548
v 124.97518158 14.48999977 97.06116486
v 125.69274902 14.48999977 96.93665314
v 127.03480530 14.48999977 96.38076019
v 126.82341003 14.48999977 96.50051117
v 129.44000244 14.48999977 92.13500214
v 128.46588135 14.48999977 95.08370972
v 128.31640625 14.48999977 95.27524567
v 129.06320190 14.48999977 94.02928162
v 125.45569611 14.48999977 96.98988342
v 126.38428497 14.48999977 96.70820618
v 126.15760803 14.48999977 96.79564667
v 126.60639954 14.48999977 96.60974884
v 129.22685242 14.48999977 93.57190704
v 129.15065002 14.48999977 93.80260468
v 124.73288727 14.48999977 97.07904053
v 127.63024902 14.48999977 95.96140289
v 127.43871307 14.48999977 96.11087799
v 128.15771484 14.48999977 95.45921326
v 127.99018097 14.48999977 95.63517761
v 127.24007416 14.48999977 96.25077820
v 129.41616821 14.48999977 92.62018585
v 129.38642883 14.48999977 92.86131287
v 129.34489441 14.48999977 93.10070038
v 129.29165649 14.48999977 93.33775330
v 127.81421661 14.48999977 95.80271149
v 129.43403625 14.48999977 92.37788391
v 127.03480530 111.51000214 15.61924362
v 125.21631622 111.51000214 14.96857643
v 124.97518158 111.51000214 14.93883514
v 126.38428497 111.51000214 15.29179668
v 125.92691040 111.51000214 15.12814522
v 125.69274902 111.51000214 15.06334496
v 125.45569611 111.51000214 15.01011276
v 126.82341003 111.51000214 15.49948978
v 128.60577393 111.51000214 94.88507080
v 128.73576355 111.51000214 94.67980957
v 124.73288727 111.51000214 14.92096233
v 126.15760803 111.51000214 15.20435715
v 126.60639954 111.51000214 15.39025307
v 128.46588135 111.51000214 95.08370972
v 127.43871307 111.51000214 15.88912296
v 127.24007416 111.51000214 15.74922562
v 128.85551453 111.51000214 17.53158569
v 128.73576355 111.51000214 17.32019234
v 128.85551453 111.51000214 94.46841431
v 126.60639954 111.51000214 96.60974884
v 126.82341003 111.51000214 96.50051117
v 125.45569611 111.51000214 96.98988342
v 125.69274902 111.51000214 96.93665314
v 127.63024902 111.51000214 16.03859901
v 127.99018097 111.51000214 16.36482048
v 127.81421661 111.51000214 16.19729233
v 128.96475220 111.51000214 17.74860191
v 128.96475220 111.51000214 94.25139618
v 128.15771484 111.51000214 95.45921326
v 128.31640625 111.51000214 95.27524567
v 126.38428497 111.51000214 96.70820618
v 125.92691040 111.51000214 96.87185669
v 126.15760803 111.51000214 96.79564667
v 125.21631622 111.51000214 97.03142548
v 124.73288727 111.51000214 97.07904053
v 128.15771484 111.51000214 16.54078293
v 128.60577393 111.51000214 17.11492729
v 129.06320190 111.51000214 94.02928162
v 129.15065002 111.51000214 93.80260468
v 127.63024902 111.51000214 95.96140289
v 127.81421661 111.51000214 95.80271149
v 127.24007416 111.51000214 96.25077820
v 127.43871307 111.51000214 96.11087799
v 124.97518158 111.51000214 97.06116486
v 128.46588135 111.51000214 16.91628838
v 128.31640625 111.51000214 16.72475243
v 129.06320190 111.51000214 17.97071648
v 129.22685242 111.51000214 18.42809105
v 129.15065002 111.51000214 18.19739532
v 127.99018097 111.51000214 95.63517761
v 127.03480530 111.51000214 96.38076019
v 129.41616821 111.51000214 19.37981606
v 129.38642883 111.51000214 19.13868332
v 129.34489441 111.51000214 93.10070038
v 129.38642883 111.51000214 92.86131287
v 129.34489441 111.51000214 18.89930344
v 129.29165649 111.51000214 18.66224861
v 129.43403625 111.51000214 19.62211418
v 129.41616821 111.51000214 92.62018585
v 129.22685242 111.51000214 93.57190704
v 129.29165649 111.51000214 93.33775330
v 129.44000244 111.51000214 19.86499977
v 129.43403625 111.51000214 92.37788391
v 129.44000244 111.51000214 92.13500214
v 124.48999786 110.51999664 96.09500122
v 124.48999786 15.47999954 96.09500122
v 22.66850090 110.51999664 96.09500122
v 22.66850090 15.47999954 96.09500122
v 19.55375671 15.47999954 93.12951660
v 19.54999924 15.47999954 92.97650146
v 19.54999924 110.51999664 92.97650146
v 19.56501579 15.47999954 93.28216553
v 19.55375671 110.51999664 93.12951660
v 19.58375359 15.47999954 93.43408203
v 19.56501579 110.51999664 93.28216553
v 19.60992050 15.47999954 93.58489227
v 19.58375359 110.51999664 93.43408203
v 19.64345741 15.47999954 93.73423004
v 19.60992050 110.51999664 93.58489227
v 19.68428230 15.47999954 93.88175201
v 19.64345741 110.51999664 93.73423004
v 19.73229408 15.47999954 94.02709198
v 19.68428230 110.51999664 93.88175201
v 19.78738213 15.47999954 94.16989899
v 19.73229408 110.51999664 94.02709198
v 19.84940910 15.47999954 94.30982971
v 19.78738213 110.51999664 94.16989899
v 19.91822815 15.47999954 94.44654846
v 19.84940910 110.51999664 94.30982971
v 19.99367332 15.47999954 94.57972717
v 19.91822815 110.51999664 94.44654846
v 20.07556152 15.47999954 94.70904541
v 19.99367332 110.51999664 94.57972717
v 20.16369820 15.47999954 94.83419037
v 20.07556152 110.51999664 94.70904541
v 20.25786781 15.47999954 94.95485687
v 20.16369820 110.51999664 94.83419037
v 20.35784340 15.47999954 95.07075500
v 20.25786781 110.51999664 94.95485687
v 20.46338844 15.47999954 95.18161011
v 20.35784340 110.51999664 95.07075500
v 20.57424355 15.47999954 95.28715515
v 20.46338844 110.51999664 95.18161011
v 20.69014549 15.47999954 95.38713074
v 20.57424355 110.51999664 95.28715515
v 20.81081200 15.47999954 95.48130035
v 20.69014549 110.51999664 95.38713074
v 20.93595505 15.47999954 95.56943512
v 20.81081200 110.51999664 95.48130035
v 21.06527138 15.47999954 95.65132904
v 20.93595505 110.51999664 95.56943512
v 21.19845009 15.47999954 95.72676849
v 21.06527138 110.51999664 95.65132904
v 21.33516884 15.47999954 95.79559326
v 21.19845009 110.51999664 95.72676849
v 21.47510147 15.47999954 95.85762024
v 21.33516884 110.51999664 95.79559326
v 21.61790848 15.47999954 95.91270447
v 21.47510147 110.51999664 95.85762024
v 21.76324654 15.47999954 95.96071625
v 21.61790848 110.51999664 95.91270447
v 21.91076660 15.47999954 96.00154114
v 21.76324654 110.51999664 95.96071625
v 22.06011009 15.47999954 96.03507996
v 21.91076660 110.51999664 96.00154114
v 22.21092033 15.47999954 96.06124878
v 22.06011009 110.51999664 96.03507996
v 22.36283302 15.47999954 96.07998657
v 22.21092033 110.51999664 96.06124878
v 22.51548195 15.47999954 96.09123993
v 22.36283302 110.51999664 96.07998657
v 22.51548195 110.51999664 96.09123993
v 19.54999924 15.47999954 19.02350044
v 19.54999924 110.51999664 19.02350044
v 22.51548195 15.47999954 15.90875626
v 22.66850090 15.47999954 15.90499973
v 22.66850090 110.51999664 15.90499973
v 22.36283302 15.47999954 15.92001629
v 22.51548195 110.51999664 15.90875626
v 22.21092033 15.47999954 15.93875313
v 22.36283302 110.51999664 15.92001629
v 22.06011009 15.47999954 15.96492100
v 22.21092033 110.51999664 15.93875313
v 21.91076660 15.47999954 15.99845791
v 22.06011009 110.51999664 15.96492100
v 21.76324654 15.47999954 16.03928185
v 21.91076660 110.51999664 15.99845791
v 21.61790848 15.47999954 16.08729553
v 21.76324654 110.51999664 16.03928185
v 21.47510147 15.47999954 16.14238167
v 21.61790848 110.51999664 16.08729553
v 21.33516884 15.47999954 16.20440865
v 21.47510147 110.51999664 16.14238167
v 21.19845009 15.47999954 16.27322769
v 21.33516884 110.51999664 16.20440865
v 21.06527138 15.47999954 16.34867287
v 21.19845009 110.51999664 16.27322769
v 20.93595505 15.47999954 16.43056107
v 21.06527138 110.51999664 16.34867287
v 20.81081200 15.47999954 16.51869774
v 20.93595505 110.51999664 16.43056107
v 20.69014549 15.47999954 16.61286736
v 20.81081200 110.51999664 16.51869774
v 20.57424355 15.47999954 16.71284485
v 20.69014549 110.51999664 16.61286736
v 20.46338844 15.47999954 16.81838799
v 20.57424355 110.51999664 16.71284485
v 20.35784340 15.47999954 16.92924309
v 20.46338844 110.51999664 16.81838799
v 20.25786781 15.47999954 17.04514503
v 20.35784340 110.51999664 16.92924309
v 20.16369820 15.47999954 17.16581154
v 20.25786781 110.51999664 17.04514503
v 20.07556152 15.47999954 17.29095459
v 20.16369820 110.51999664 17.16581154
v 19.99367332 15.47999954 17.42027092
v 20.07556152 110.51999664 17.29095459
v 19.91822815 15.47999954 17.55344963
v 19.99367332 110.51999664 17.42027092
v 19.84940910 15.47999954 17.69017029
v 19.91822815 110.51999664 17.55344963
v 19.78738213 15.47999954 17.83010101
v 19.84940910 110.51999664 17.69017029
v 19.73229408 15.47999954 17.97290993
v 19.78738213 110.51999664 17.83010101
v 19.68428230 15.47999954 18.11824799
v 19.73229408 110.51999664 17.97290993
v 19.64345741 15.47999954 18.26576614
v 19.68428230 110.51999664 18.11824799
v 19.60992050 15.47999954 18.41511154
v 19.64345741 110.51999664 18.26576614
v 19.58375359 15.47999954 18.56592178
v 19.60992050 110.51999664 18.41511154
v 19.56501579 15.47999954 18.71783447
v 19.58375359 110.51999664 18.56592178
v 19.55375671 15.47999954 18.87048340
v 19.56501579 110.51999664 18.71783447
v 19.55375671 110.51999664 18.87048340
v 124.48999786 15.47999954 15.90499973
v 124.48999786 110.51999664 15.90499973
v 126.35672760 15.47999954 95.62741089
v 126.52584839 15.47999954 95.53160858
v 126.84896851 15.47999954 95.31570435
v 127.00219727 15.47999954 95.19612122
v 126.69005585 15.47999954 95.42761993
v 125.63952637 15.47999954 95.92448425
v 125.82408142 15.47999954 95.86351776
v 126.00542450 15.47999954 95.79356384
v 125.26255798 15.47999954 96.01891327
v 125.45220184 15.47999954 95.97632599
v 124.68431091 15.47999954 96.09023285
v 124.87815094 15.47999954 96.07592773
v 126.00542450 15.47999954 16.20643616
v 125.26255798 15.47999954 15.98109055
v 125.07105255 15.47999954 15.94786072
v 127.29014587 15.47999954 94.93514252
v 127.42416382 15.47999954 94.79437256
v 126.18312073 15.47999954 95.71479797
v 125.45220184 15.47999954 16.02367592
v 125.82408142 15.47999954 16.13648605
v 127.55112457 15.47999954 94.64719391
v 125.07105255 15.47999954 96.05213928
v 125.63952637 15.47999954 16.07551575
v 124.87815094 15.47999954 15.92406845
v 126.35672760 15.47999954 16.37259102
v 126.18312073 15.47999954 16.28520203
v 127.14937592 15.47999954 16.93083382
v 127.00219727 15.47999954 16.80387878
v 127.14937592 15.47999954 95.06916809
v 126.69005585 15.47999954 16.57238007
v 126.52584839 15.47999954 16.46839523
v 126.84896851 15.47999954 16.68429756
v 127.55112457 15.47999954 17.35280228
v 127.42416382 15.47999954 17.20562744
v 128.33132935 15.47999954 93.09719849
v 128.37391663 15.47999954 92.90755463
v 128.21852112 15.47999954 93.46908569
v 128.27947998 15.47999954 93.28453064
v 127.67070007 15.47999954 94.49397278
v 127.78262329 15.47999954 94.33506012
v 124.68431091 15.47999954 15.90977001
v 127.29014587 15.47999954 17.06485748
v 127.67070007 15.47999954 17.50603104
v 127.88660431 15.47999954 17.82915306
v 127.78262329 15.47999954 17.66494179
v 128.14855957 15.47999954 18.34957314
v 128.06979370 15.47999954 18.17188263
v 128.33132935 15.47999954 18.90279770
v 128.27947998 15.47999954 18.71547318
v 127.98240662 15.47999954 94.00173187
v 128.06979370 15.47999954 93.82811737
v 127.98240662 15.47999954 17.99826813
v 128.21852112 15.47999954 18.53091621
v 128.37391663 15.47999954 19.09244156
v 128.43093872 15.47999954 19.47685242
v 128.40713501 15.47999954 19.28394699
v 128.43093872 15.47999954 92.52314758
v 128.44523621 15.47999954 92.32930756
v 128.40713501 15.47999954 92.71604919
v 128.14855957 15.47999954 93.65042877
v 127.88660431 15.47999954 94.17084503
v 128.44999695 15.47999954 19.86499977
v 128.44523621 15.47999954 19.67069244
v 128.44999695 15.47999954 92.13500214
v 127.14937592 110.51999664 95.06916809
v 126.00542450 110.51999664 95.79356384
v 125.82408142 110.51999664 95.86351776
v 126.35672760 110.51999664 95.62741089
v 126.84896851 110.51999664 95.31570435
v 126.69005585 110.51999664 95.42761993
v 127.00219727 110.51999664 95.19612122
v 125.63952637 110.51999664 95.92448425
v 125.45220184 110.51999664 95.97632599
v 126.18312073 110.51999664 95.71479797
v 125.07105255 110.51999664 96.05213928
v 124.87815094 110.51999664 96.07592773
v 126.52584839 110.51999664 95.53160858
v 124.68431091 110.51999664 96.09023285
v 127.55112457 110.51999664 94.64719391
v 127.42416382 110.51999664 94.79437256
v 125.45220184 110.51999664 16.02367592
v 125.63952637 110.51999664 16.07551575
v 124.87815094 110.51999664 15.92406845
v 125.07105255 110.51999664 15.94786072
v 125.26255798 110.51999664 96.01891327
v 127.67070007 110.51999664 94.49397278
v 125.82408142 110.51999664 16.13648605
v 125.26255798 110.51999664 15.98109055
v 127.29014587 110.51999664 94.93514252
v 126.84896851 110.51999664 16.68429756
v 127.00219727 110.51999664 16.80387878
v 126.00542450 110.51999664 16.20643616
v 126.18312073 110.51999664 16.28520203
v 127.88660431 110.51999664 94.17084503
v 127.78262329 110.51999664 94.33506012
v 127.29014587 110.51999664 17.06485748
v 127.42416382 110.51999664 17.20562744
v 126.69005585 110.51999664 16.57238007
v 126.35672760 110.51999664 16.37259102
v 126.52584839 110.51999664 16.46839523
v 128.33132935 110.51999664 93.09719849
v 128.27947998 110.51999664 93.28453064
v 128.40713501 110.51999664 92.71604919
v 128.37391663 110.51999664 92.90755463
v 128.21852112 110.51999664 18.53091621
v 128.27947998 110.51999664 18.71547318
v 127.98240662 110.51999664 17.99826813
v 128.06979370 110.51999664 18.17188263
v 127.67070007 110.51999664 17.50603104
v 127.78262329 110.51999664 17.66494179
v 127.55112457 110.51999664 17.35280228
v 127.14937592 110.51999664 16.93083382
v 124.68431091 110.51999664 15.90977001
v 127.98240662 110.51999664 94.00173187
v 128.14855957 110.51999664 93.65042877
v 128.06979370 110.51999664 93.82811737
v 128.37391663 110.51999664 19.09244156
v 128.40713501 110.51999664 19.28394699
v 128.33132935 110.51999664 18.90279770
v 128.14855957 110.51999664 18.34957314
v 127.88660431 110.51999664 17.82915306
v 128.21852112 110.51999664 93.46908569
v 128.43093872 110.51999664 92.52314758
v 128.44999695 110.51999664 92.13500214
v 128.44523621 110.51999664 92.32930756
v 128.43093872 110.51999664 19.47685242
v 128.44523621 110.51999664 19.67069244
v 128.44999695 110.51999664 19.86499977
f 1 2 3
f 3 4 1
f 5 6 7
f 8 5 9
f 10 8 11
f 12 10 13
f 14 12 15
f 16 14 17
f 18 16 19
f 20 18 21
f 22 20 23
f 24 22 25
f 26 24 27
f 28 26 29
f 30 28 31
f 32 30 33
f 34 32 35
f 36 34 37
f 38 36 39
f 40 38 41
f 42 40 43
f 44 42 45
f 46 44 47
f 48 46 49
f 50 48 51
f 52 50 53
f 54 52 55
f 56 54 57
f 58 56 59
f 60 58 61
f 62 60 63
f 64 62 65
f 66 64 67
f 68 66 69
f 70 68 71
f 72 70 73
f 74 72 75
f 76 74 77
f 78 76 79
f 80 78 81
f 82 80 83
f 84 82 85
f 86 84 87
f 88 86 89
f 90 88 91
f 92 90 93
f 94 92 95
f 96 94 97
f 98 96 99
f 100 98 101
f 102 100 103
f 104 102 105
f 106 104 107
f 108 106 109
f 110 108 111
f 112 110 113
f 114 112 115
f 116 114 117
f 118 116 119
f 120 118 121
f 122 120 123
f 124 122 125
f 126 124 127
f 128 126 129
f 130 128 131
f 132 130 133
f 134 132 135
f 136 134 137
f 138 136 139
f 140 138 141
f 2 140 142
f 142 3 2
f 141 142 140
f 139 141 138
f 137 139 136
f 135 137 134
f 133 135 132
f 131 133 130
f 129 131 128
f 127 129 126
f 125 127 124
f 123 125 122
f 121 123 120
f 119 121 118
f 117 119 116
f 115 117 114
f 113 115 112
f 111 113 110
f 109 111 108
f 107 109 106
f 105 107 104
f 103 105 102
f 101 103 100
f 99 101 98
f 97 99 96
f 95 97 94
f 93 95 92
f 91 93 90
f 89 91 88
f 87 89 86
f 85 87 84
f 83 85 82
f 81 83 80
f 79 81 78
f 77 79 76
f 75 77 74
f 73 75 72
f 71 73 70
f 69 71 68
f 67 69 66
f 65 67 64
f 63 65 62
f 61 63 60
f 59 61 58
f 57 59 56
f 55 57 54
f 53 55 52
f 51 53 50
f 49 51 48
f 47 49 46
f 45 47 44
f 43 45 42
f 41 43 40
f 39 41 38
f 37 39 36
f 35 37 34
f 33 35 32
f 31 33 30
f 29 31 28
f 27 29 26
f 25 27 24
f 23 25 22
f 21 23 20
f 19 21 18
f 17 19 16
f 15 17 14
f 13 15 12
f 11 13 10
f 9 11 8
f 7 9 5
f 143 7 6
f 6 144 143
f 145 4 146
f 146 147 145
f 145 1 4
f 145 147 148
f 149 148 150
f 151 150 152
f 153 152 154
f 155 154 156
f 157 156 158
f 159 158 160
f 161 160 162
f 163 162 164
f 165 164 166
f 167 166 168
f 169 168 170
f 171 170 172
f 173 172 174
f 175 174 176
f 177 176 178
f 179 178 180
f 181 180 182
f 183 182 184
f 185 184 186
f 187 186 188
f 189 188 190
f 191 190 192
f 193 192 194
f 195 194 196
f 197 196 198
f 199 198 200
f 201 200 202
f 203 202 204
f 205 204 206
f 207 206 208
f 208 209 207
f 206 207 205
f 204 205 203
f 202 203 201
f 200 201 199
f 198 199 197
f 196 197 195
f 194 195 193
f 192 193 191
f 190 191 189
f 188 189 187
f 186 187 185
f 184 185 183
f 182 183 181
f 180 181 179
f 178 179 177
f 176 177 175
f 174 175 173
f 172 173 171
f 170 171 169
f 168 169 167
f 166 167 165
f 164 165 163
f 162 163 161
f 160 161 159
f 158 159 157
f 156 157 155
f 154 155 153
f 152 153 151
f 150 151 149
f 148 149 145
f 146 210 147
f 210 146 211
f 211 212 210
f 209 208 213
f 213 214 209
f 214 213 215
f 216 215 217
f 218 217 219
f 220 219 221
f 222 221 223
f 224 223 225
f 226 225 227
f 228 227 229
f 230 229 231
f 232 231 233
f 234 233 235
f 236 235 237
f 238 237 239
f 240 239 241
f 242 241 243
f 244 243 245
f 246 245 247
f 248 247 249
f 250 249 251
f 252 251 253
f 254 253 255
f 256 255 257
f 258 257 259
f 260 259 261
f 262 261 263
f 264 263 265
f 266 265 267
f 268 267 269
f 270 269 271
f 272 271 273
f 274 273 275
f 276 275 277
f 277 278 276
f 275 276 274
f 273 274 272
f 271 272 270
f 269 270 268
f 267 268 266
f 265 266 264
f 263 264 262
f 261 262 260
f 259 260 258
f 257 258 256
f 255 256 254
f 253 254 252
f 251 252 250
f 249 250 248
f 247 248 246
f 245 246 244
f 243 244 242
f 241 242 240
f 239 240 238
f 237 238 236
f 235 236 234
f 233 234 232
f 231 232 230
f 229 230 228
f 227 228 226
f 225 226 224
f 223 224 222
f 221 222 220
f 219 220 218
f 217 218 216
f 215 216 214
f 278 277 279
f 279 280 278
f 96 258 260
f 96 252 254
f 96 264 266
f 260 262 96
f 254 256 96
f 96 244 246
f 50 281 282
f 262 264 96
f 96 250 252
f 246 248 96
f 96 232 234
f 50 283 284
f 50 285 286
f 50 287 281
f 50 288 289
f 266 268 96
f 248 250 96
f 96 230 232
f 96 222 224
f 280 72 74
f 284 290 50
f 50 291 292
f 286 293 50
f 289 287 50
f 256 258 96
f 96 240 242
f 96 228 230
f 224 226 96
f 96 98 218
f 96 276 278
f 74 278 280
f 280 68 70
f 50 294 283
f 292 295 50
f 282 285 50
f 242 244 96
f 96 236 238
f 226 228 96
f 218 220 96
f 96 274 276
f 278 80 82
f 278 76 78
f 70 72 280
f 280 64 66
f 50 296 297
f 50 298 299
f 290 300 50
f 50 301 302
f 293 291 50
f 12 303 304
f 155 165 167
f 134 197 199
f 238 240 96
f 220 222 96
f 96 272 274
f 278 84 86
f 78 80 278
f 66 68 280
f 297 305 50
f 50 52 280
f 300 298 50
f 295 301 50
f 48 306 307
f 304 308 12
f 167 169 155
f 155 161 163
f 161 155 157
f 173 151 153
f 134 195 197
f 234 236 96
f 96 270 272
f 86 88 278
f 74 76 278
f 280 60 62
f 50 309 310
f 280 296 50
f 50 311 312
f 302 294 50
f 48 313 314
f 307 315 48
f 12 316 303
f 317 318 319
f 318 317 320
f 144 321 322
f 169 171 155
f 157 159 161
f 173 149 151
f 173 1 145
f 134 193 195
f 134 189 191
f 134 183 185
f 278 94 96
f 88 90 278
f 62 64 280
f 280 54 56
f 305 309 50
f 299 311 50
f 315 313 48
f 314 40 42
f 323 28 30
f 12 324 325
f 12 326 316
f 320 327 318
f 144 328 329
f 322 330 144
f 1 175 177
f 163 165 155
f 145 149 173
f 191 193 134
f 185 187 134
f 278 92 94
f 82 84 278
f 56 58 280
f 312 48 50
f 48 312 306
f 42 44 314
f 323 26 28
f 308 324 12
f 12 331 332
f 319 333 317
f 330 328 144
f 144 334 335
f 1 173 175
f 153 155 173
f 134 201 203
f 187 189 134
f 90 92 278
f 280 52 54
f 314 46 48
f 314 38 40
f 314 30 32
f 323 24 26
f 12 336 337
f 332 326 12
f 329 317 144
f 335 338 144
f 171 173 155
f 134 205 207
f 199 201 134
f 58 60 280
f 44 46 314
f 314 34 36
f 30 314 323
f 14 339 340
f 325 336 12
f 12 341 342
f 338 321 144
f 144 337 343
f 177 179 1
f 136 138 1
f 203 205 134
f 134 136 181
f 209 126 128
f 209 118 120
f 310 288 50
f 32 34 314
f 14 344 339
f 342 331 12
f 10 337 144
f 343 334 144
f 1 181 136
f 181 183 134
f 209 124 126
f 120 122 209
f 209 214 116
f 214 108 110
f 214 102 104
f 98 100 214
f 36 38 314
f 323 20 22
f 14 323 344
f 12 340 341
f 333 144 317
f 207 209 134
f 209 130 132
f 122 124 209
f 214 114 116
f 110 112 214
f 214 100 102
f 214 216 98
f 22 24 323
f 323 16 18
f 340 12 14
f 144 8 10
f 1 138 140
f 132 134 209
f 116 118 209
f 214 106 108
f 216 218 98
f 18 20 323
f 337 10 12
f 144 6 5
f 179 181 1
f 112 114 214
f 268 270 96
f 5 8 144
f 128 130 209
f 14 16 323
f 104 106 214
f 140 2 1
f 345 346 347
f 348 349 350
f 351 345 352
f 212 353 354
f 347 355 345
f 348 356 349
f 352 357 351
f 212 358 353
f 345 351 346
f 357 348 351
f 279 359 360
f 279 361 362
f 354 363 212
f 212 364 365
f 212 366 367
f 277 255 253
f 257 277 275
f 350 351 348
f 279 368 359
f 279 369 370
f 279 371 361
f 363 372 212
f 212 373 374
f 212 375 364
f 212 376 377
f 212 378 366
f 378 212 379
f 210 160 158
f 210 200 198
f 277 235 233
f 277 247 245
f 277 257 255
f 257 263 261
f 257 267 265
f 257 271 269
f 275 273 257
f 360 345 279
f 279 380 369
f 362 381 279
f 212 382 383
f 374 358 212
f 212 384 385
f 212 386 387
f 377 375 212
f 379 388 378
f 154 148 147
f 154 152 150
f 158 156 210
f 210 164 162
f 210 168 166
f 198 196 210
f 277 225 223
f 233 231 277
f 277 249 247
f 253 251 277
f 265 263 257
f 273 271 257
f 370 368 279
f 279 389 390
f 279 391 371
f 279 392 393
f 372 382 212
f 385 394 212
f 212 395 386
f 367 376 212
f 150 148 154
f 162 160 210
f 210 170 168
f 210 186 184
f 210 192 190
f 196 194 210
f 277 227 225
f 231 229 277
f 251 249 277
f 269 267 257
f 390 380 279
f 393 391 279
f 279 396 397
f 212 398 399
f 394 373 212
f 365 395 212
f 156 154 210
f 210 172 170
f 210 178 176
f 210 188 186
f 194 192 210
f 277 221 219
f 229 227 277
f 277 243 241
f 261 259 257
f 381 389 279
f 279 400 401
f 279 402 396
f 399 403 212
f 212 404 405
f 387 384 212
f 166 164 210
f 176 174 210
f 190 188 210
f 210 204 202
f 277 217 215
f 223 221 277
f 277 239 237
f 245 243 277
f 401 392 279
f 279 406 402
f 403 407 212
f 383 404 212
f 174 172 210
f 210 182 180
f 202 200 210
f 210 208 206
f 219 217 277
f 241 239 277
f 213 406 279
f 397 400 279
f 405 398 212
f 208 210 212
f 180 178 210
f 206 204 210
f 237 235 277
f 355 279 345
f 212 408 208
f 184 182 210
f 213 208 408
f 279 277 213
f 147 210 154
f 215 213 277
f 408 406 213
f 407 408 212
f 406 408 323
f 323 314 406
f 280 279 355
f 296 355 347
f 297 347 346
f 305 346 351
f 309 351 350
f 310 350 349
f 288 349 356
f 289 356 348
f 287 348 357
f 281 357 352
f 282 352 345
f 285 345 360
f 286 360 359
f 293 359 368
f 291 368 370
f 292 370 369
f 295 369 380
f 301 380 390
f 302 390 389
f 294 389 381
f 283 381 362
f 284 362 361
f 290 361 371
f 300 371 391
f 298 391 393
f 299 393 392
f 311 392 401
f 312 401 400
f 306 400 397
f 307 397 396
f 315 396 402
f 313 402 406
f 406 314 313
f 402 313 315
f 396 315 307
f 397 307 306
f 400 306 312
f 401 312 311
f 392 311 299
f 393 299 298
f 391 298 300
f 371 300 290
f 361 290 284
f 362 284 283
f 381 283 294
f 389 294 302
f 390 302 301
f 380 301 295
f 369 295 292
f 370 292 291
f 368 291 293
f 359 293 286
f 360 286 285
f 345 285 282
f 352 282 281
f 357 281 287
f 348 287 289
f 356 289 288
f 349 288 310
f 350 310 309
f 351 309 305
f 346 305 297
f 347 297 296
f 355 296 280
f 333 379 211
f 211 143 333
f 379 212 211
f 379 333 319
f 388 319 318
f 378 318 327
f 366 327 320
f 367 320 317
f 376 317 329
f 377 329 328
f 375 328 330
f 364 330 322
f 365 322 321
f 395 321 338
f 386 338 335
f 387 335 334
f 384 334 343
f 385 343 337
f 394 337 336
f 373 336 325
f 374 325 324
f 358 324 308
f 353 308 304
f 354 304 303
f 363 303 316
f 372 316 326
f 382 326 332
f 383 332 331
f 404 331 342
f 405 342 341
f 398 341 340
f 399 340 339
f 403 339 344
f 407 344 323
f 323 408 407
f 344 407 403
f 339 403 399
f 340 399 398
f 341 398 405
f 342 405 404
f 331 404 383
f 332 383 382
f 326 382 372
f 316 372 363
f 303 363 354
f 304 354 353
f 308 353 358
f 324 358 374
f 325 374 373
f 336 373 394
f 337 394 385
f 343 385 384
f 334 384 387
f 335 387 386
f 338 386 395
f 321 395 365
f 322 365 364
f 330 364 375
f 328 375 377
f 329 377 376
f 317 376 367
f 320 367 366
f 327 366 378
f 318 378 388
f 319 388 379
f 143 144 333
f 211 409 410
f 410 143 211
f 411 146 4
f 4 412 411
f 413 414 415
f 416 413 417
f 418 416 419
f 420 418 421
f 422 420 423
f 424 422 425
f 426 424 427
f 428 426 429
f 430 428 431
f 432 430 433
f 434 432 435
f 436 434 437
f 438 436 439
f 440 438 441
f 442 440 443
f 444 442 445
f 446 444 447
f 448 446 449
f 450 448 451
f 452 450 453
f 454 452 455
f 456 454 457
f 458 456 459
f 460 458 461
f 462 460 463
f 464 462 465
f 466 464 467
f 468 466 469
f 470 468 471
f 472 470 473
f 474 472 475
f 412 474 476
f 476 411 412
f 475 476 474
f 473 475 472
f 471 473 470
f 469 471 468
f 467 469 466
f 465 467 464
f 463 465 462
f 461 463 460
f 459 461 458
f 457 459 456
f 455 457 454
f 453 455 452
f 451 453 450
f 449 451 448
f 447 449 446
f 445 447 444
f 443 445 442
f 441 443 440
f 439 441 438
f 437 439 436
f 435 437 434
f 433 435 432
f 431 433 430
f 429 431 428
f 427 429 426
f 425 427 424
f 423 425 422
f 421 423 420
f 419 421 418
f 417 419 416
f 415 417 413
f 477 478 415
f 415 414 477
f 479 480 481
f 482 479 483
f 484 482 485
f 486 484 487
f 488 486 489
f 490 488 491
f 492 490 493
f 494 492 495
f 496 494 497
f 498 496 499
f 500 498 501
f 502 500 503
f 504 502 505
f 506 504 507
f 508 506 509
f 510 508 511
f 512 510 513
f 514 512 515
f 516 514 517
f 518 516 519
f 520 518 521
f 522 520 523
f 524 522 525
f 526 524 527
f 528 526 529
f 530 528 531
f 532 530 533
f 534 532 535
f 536 534 537
f 538 536 539
f 540 538 541
f 477 540 542
f 542 478 477
f 541 542 540
f 539 541 538
f 537 539 536
f 535 537 534
f 533 535 532
f 531 533 530
f 529 531 528
f 527 529 526
f 525 527 524
f 523 525 522
f 521 523 520
f 519 521 518
f 517 519 516
f 515 517 514
f 513 515 512
f 511 513 510
f 509 511 508
f 507 509 506
f 505 507 504
f 503 505 502
f 501 503 500
f 499 501 498
f 497 499 496
f 495 497 494
f 493 495 492
f 491 493 490
f 489 491 488
f 487 489 486
f 485 487 484
f 483 485 482
f 481 483 479
f 543 544 481
f 481 480 543
f 67 545 546
f 67 547 548
f 546 549 67
f 67 550 551
f 549 547 67
f 551 552 67
f 67 553 554
f 67 555 556
f 557 558 559
f 67 560 561
f 67 562 545
f 554 550 67
f 67 410 555
f 557 563 558
f 563 557 564
f 561 565 67
f 552 562 67
f 556 566 67
f 564 567 563
f 568 569 570
f 543 571 572
f 67 573 560
f 566 553 67
f 570 557 568
f 568 574 575
f 572 576 543
f 543 577 578
f 67 579 580
f 67 581 582
f 67 583 584
f 548 573 67
f 574 568 585
f 575 569 568
f 543 586 571
f 543 587 577
f 543 588 589
f 543 590 591
f 543 592 593
f 582 579 67
f 67 594 595
f 565 583 67
f 559 568 557
f 578 586 543
f 543 596 588
f 543 597 590
f 543 598 592
f 543 599 600
f 67 601 602
f 580 603 67
f 595 604 67
f 584 605 67
f 576 574 543
f 591 596 543
f 600 598 543
f 543 606 607
f 603 601 67
f 605 594 67
f 589 587 543
f 607 599 543
f 67 608 606
f 604 581 67
f 593 597 543
f 602 608 67
f 543 462 464
f 543 454 456
f 606 543 67
f 410 47 45
f 410 61 59
f 543 466 468
f 543 460 462
f 456 458 543
f 480 514 516
f 486 479 482
f 543 69 67
f 543 75 73
f 543 79 77
f 410 33 31
f 410 49 47
f 410 55 53
f 410 63 61
f 410 67 65
f 468 470 543
f 458 460 543
f 543 450 452
f 543 446 448
f 543 430 432
f 543 426 428
f 480 512 514
f 480 496 498
f 482 484 486
f 543 71 69
f 77 75 543
f 543 83 81
f 543 87 85
f 412 125 123
f 412 133 131
f 31 29 410
f 410 37 35
f 45 43 410
f 53 51 410
f 65 63 410
f 543 472 474
f 464 466 543
f 448 450 543
f 543 442 444
f 543 434 436
f 428 430 543
f 480 534 536
f 480 520 522
f 516 518 480
f 480 504 506
f 480 500 502
f 480 494 496
f 480 488 490
f 488 480 479
f 73 71 543
f 85 83 543
f 543 91 89
f 543 95 93
f 412 101 99
f 412 115 113
f 412 127 125
f 131 129 412
f 4 141 139
f 35 33 410
f 410 41 39
f 51 49 410
f 59 57 410
f 470 472 543
f 444 446 543
f 432 434 543
f 543 422 424
f 543 416 418
f 480 532 534
f 480 528 530
f 480 524 526
f 518 520 480
f 480 508 510
f 502 504 480
f 480 492 494
f 486 488 479
f 81 79 543
f 93 91 543
f 99 543 412
f 412 109 107
f 412 117 115
f 412 121 119
f 129 127 412
f 412 137 135
f 139 412 4
f 143 410 13
f 39 37 410
f 57 55 410
f 452 454 543
f 543 438 440
f 424 426 543
f 418 420 543
f 530 532 480
f 522 524 480
f 506 508 480
f 490 492 480
f 89 87 543
f 99 97 543
f 107 105 412
f 113 111 412
f 123 121 412
f 139 137 412
f 4 3 142
f 410 15 13
f 410 19 17
f 410 27 25
f 43 41 410
f 440 442 543
f 420 422 543
f 526 528 480
f 498 500 480
f 97 95 543
f 105 103 412
f 119 117 412
f 142 141 4
f 143 11 9
f 17 15 410
f 410 23 21
f 29 27 410
f 436 438 543
f 543 414 413
f 480 538 540
f 510 512 480
f 103 101 412
f 135 133 412
f 13 11 143
f 25 23 410
f 413 416 543
f 536 538 480
f 111 109 412
f 21 19 410
f 543 477 414
f 477 543 480
f 9 7 143
f 540 477 480
f 474 412 543
f 585 543 574
f 609 610 611
f 612 613 614
f 612 609 615
f 609 616 617
f 609 618 610
f 615 613 612
f 609 619 620
f 611 616 609
f 614 621 612
f 622 623 624
f 411 625 626
f 411 627 628
f 481 489 487
f 481 521 519
f 609 629 619
f 612 618 609
f 622 630 623
f 626 631 411
f 628 632 411
f 487 485 481
f 481 503 501
f 519 517 481
f 544 461 459
f 544 469 467
f 617 629 609
f 624 633 622
f 411 634 635
f 411 636 637
f 632 625 411
f 481 491 489
f 481 495 493
f 501 499 481
f 481 507 505
f 481 511 509
f 481 523 521
f 481 527 525
f 481 541 539
f 544 463 461
f 467 465 544
f 544 473 471
f 633 609 622
f 622 638 639
f 411 640 641
f 411 642 634
f 411 643 644
f 631 636 411
f 493 491 481
f 499 497 481
f 509 507 481
f 481 515 513
f 525 523 481
f 481 531 529
f 481 535 533
f 539 537 481
f 544 433 431
f 544 437 435
f 544 453 451
f 544 457 455
f 465 463 544
f 544 475 473
f 639 630 622
f 409 645 646
f 409 647 648
f 411 649 650
f 411 651 652
f 411 653 654
f 641 655 411
f 635 656 411
f 637 643 411
f 411 544 657
f 497 495 481
f 513 511 481
f 529 527 481
f 537 535 481
f 435 433 544
f 544 441 439
f 544 449 447
f 455 453 544
f 471 469 544
f 544 411 476
f 622 658 638
f 409 659 660
f 648 645 409
f 411 661 662
f 650 663 411
f 652 664 411
f 654 665 411
f 656 640 411
f 657 627 411
f 505 503 481
f 533 531 481
f 544 423 421
f 544 429 427
f 439 437 544
f 451 449 544
f 476 475 544
f 620 622 609
f 409 666 659
f 409 667 647
f 409 668 669
f 411 670 671
f 663 661 411
f 665 651 411
f 644 642 411
f 517 515 481
f 481 478 542
f 544 425 423
f 431 429 544
f 544 445 443
f 459 457 544
f 660 658 409
f 669 667 409
f 662 670 411
f 655 653 411
f 542 541 481
f 427 425 544
f 447 445 544
f 646 666 409
f 664 649 411
f 485 483 481
f 544 419 417
f 443 441 544
f 622 409 658
f 671 672 411
f 544 415 478
f 421 419 544
f 146 411 409
f 672 668 411
f 417 415 544
f 409 411 668
f 409 211 146
f 481 544 478
f 606 608 668
f 668 672 606
f 607 606 672
f 599 607 671
f 600 599 670
f 598 600 662
f 592 598 661
f 593 592 663
f 597 593 650
f 590 597 649
f 591 590 664
f 596 591 652
f 588 596 651
f 589 588 665
f 587 589 654
f 577 587 653
f 578 577 655
f 586 578 641
f 571 586 640
f 572 571 656
f 576 572 635
f 574 576 634
f 575 574 642
f 569 575 644
f 570 569 643
f 557 570 637
f 564 557 636
f 567 564 631
f 563 567 626
f 558 563 625
f 559 558 632
f 568 559 628
f 585 568 627
f 543 585 657
f 657 544 543
f 627 657 585
f 628 627 568
f 632 628 559
f 625 632 558
f 626 625 563
f 631 626 567
f 636 631 564
f 637 636 557
f 643 637 570
f 644 643 569
f 642 644 575
f 634 642 574
f 635 634 576
f 656 635 572
f 640 656 571
f 641 640 586
f 655 641 578
f 653 655 577
f 654 653 587
f 665 654 589
f 651 665 588
f 652 651 596
f 664 652 591
f 649 664 590
f 650 649 597
f 663 650 593
f 661 663 592
f 662 661 598
f 670 662 600
f 671 670 599
f 672 671 607
f 669 668 608
f 667 669 602
f 647 667 601
f 648 647 603
f 645 648 580
f 646 645 579
f 666 646 582
f 659 666 581
f 660 659 604
f 658 660 595
f 638 658 594
f 639 638 605
f 630 639 584
f 623 630 583
f 624 623 565
f 633 624 561
f 609 633 560
f 615 609 573
f 613 615 548
f 614 613 547
f 621 614 549
f 612 621 546
f 618 612 545
f 610 618 562
f 611 610 552
f 616 611 551
f 617 616 550
f 629 617 554
f 619 629 553
f 620 619 566
f 622 620 556
f 409 622 555
f 555 410 409
f 556 555 622
f 566 556 620
f 553 566 619
f 554 553 629
f 550 554 617
f 551 550 616
f 552 551 611
f 562 552 610
f 545 562 618
f 546 545 612
f 549 546 621
f 547 549 614
f 548 547 613
f 573 548 615
f 560 573 609
f 561 560 633
f 565 561 624
f 583 565 623
f 584 583 630
f 605 584 639
f 594 605 638
f 595 594 658
f 604 595 660
f 581 604 659
f 582 581 666
f 579 582 646
f 580 579 645
f 603 580 648
f 601 603 647
f 602 601 667
f 608 602 669

